<svg xmlns="http://www.w3.org/2000/svg" viewBox="0 0 128.28 16.69"><defs><style>.cls-1{fill:#67c6dd;}.cls-2{stroke:#30a0b2;stroke-miterlimit:10;stroke-width:0.25px;}</style></defs><g id="Capa_2" data-name="Capa 2"><g id="Capa_1-2" data-name="Capa 1"><path class="cls-1" d="M14.75.05V3.56H0V.05Zm-11.24,13H14.75v3.51H0V6L3.51,6h9.77v3.5H3.51Z"/><path class="cls-2" d="M29.81,11.3l-.22.69a6.63,6.63,0,0,1-12.87-1.08,6.33,6.33,0,0,1-.07-1A5.86,5.86,0,0,1,16.72,9a6.63,6.63,0,0,1,12.93-.91l.19.68h-2.9l-.14-.33a3.82,3.82,0,0,0-7.34,1.5,3.39,3.39,0,0,0,.08.78,3.82,3.82,0,0,0,7.18.87l.15-.29Z"/><path class="cls-2" d="M44.74,10A6.59,6.59,0,1,1,38.16,3.4,6.59,6.59,0,0,1,44.74,10ZM38.16,6.15A3.84,3.84,0,1,0,42,10,3.84,3.84,0,0,0,38.16,6.15Z"/><path class="cls-1" d="M63.16,10l-.28.86A8.28,8.28,0,0,1,46.72,8.28a8.92,8.92,0,0,1,.08-1.16A8.29,8.29,0,0,1,60,1.69,8.38,8.38,0,0,1,63,6l.24.84H59.57l-.17-.4a4.78,4.78,0,0,0-9.08.92,4.91,4.91,0,0,0-.09.94,4.75,4.75,0,0,0,.1,1,4.78,4.78,0,0,0,9,1.08l.18-.37Z"/><path class="cls-2" d="M75.64,13.76v2.81H65.12V3.26h2.81v10.5Z"/><path class="cls-2" d="M89.17,3.35V6.16H77.36V3.35Zm-9,10.41h9v2.81H77.36V8.1H88v2.81H80.17Z"/><path class="cls-2" d="M102.78,3.35V6.16H90.88V3.35ZM95.33,16.57V8.12h2.81v8.45Z"/><path class="cls-2" d="M105.53,8l1.76,3.17-2.86,5.18-.15.27h-3.52l.43-.78Zm10.53,8.62h-3.52l-.15-.27-2.64-4.77L108.46,9.2l0-.09-1.77-3.17h0l.14-.26,1.15-2.07.13-.3h.68l.13.3L110,5.67l5.6,10.12Z"/><path class="cls-2" d="M127.56,10.57a4,4,0,0,1,0,4,4,4,0,0,1-3.48,2h-4a3.84,3.84,0,0,1-3.83-3.83H119a1.08,1.08,0,0,0,.73,1h4.32a1.2,1.2,0,1,0,0-2.4h-3.79a4,4,0,0,1-2.94-1.28,3.6,3.6,0,0,1-.54-.74,4,4,0,0,1,0-4,4,4,0,0,1,3.48-2h4a3.83,3.83,0,0,1,3.83,3.82h-2.75a1.09,1.09,0,0,0-.73-1h-4.39a1.2,1.2,0,0,0,0,2.4h3.79A4,4,0,0,1,127.56,10.57Z"/></g></g></svg>